<?xml version="1.0" encoding="UTF-8"?>
<svg width="1513px" height="525px" viewBox="0 0 1513 525" version="1.1" xmlns="http://www.w3.org/2000/svg" xmlns:xlink="http://www.w3.org/1999/xlink">
    <!-- Generator: Sketch 53.2 (72643) - https://sketchapp.com -->
    <title>logoisciii</title>
    <desc>Created with Sketch.</desc>
    <g id="logoisciii" stroke="none" stroke-width="1" fill="none" fill-rule="evenodd">
        <rect fill="#FFFFFF" x="0" y="0" width="1513" height="525"></rect>
        <g id="LogoISCIII" transform="translate(39.000000, 71.000000)" fill-rule="nonzero">
            <path d="M261.87,337.48 C261.87,371.76 279.09,403.82 328.04,403.82 C396.43,403.82 461.74,323.66 461.74,316.16 C461.74,310.53 459.53,308.66 453.9,308.66 C448.27,308.66 439.9,319.06 425.9,331 C408.16,345.83 392.47,356.75 373.03,356.75 C344.21,356.75 333.3,344.13 333.3,322.81 C333.3,306.81 341.82,275.4 358.19,245.55 C367.57,229.01 396.19,183.65 421.3,183.65 C435.96,183.65 441.59,191.15 447.73,198.48 C459.33,212.3 469.39,218.61 488.15,218.61 C506.06,218.61 517.65,209.4 517.65,197.46 C517.65,173.93 475.65,166.59 448.41,166.59 C341.31,166.76 261.84,259.59 261.84,337.48 L261.87,337.48 Z" id="Path" fill="#97B5CF"></path>
            <path d="M151.36,224.41 C151.36,248.97 186.36,261.07 214.46,261.07 C271.93,261.07 338.1,225.6 338.1,184.84 C338.1,163.69 320.36,142.38 303.1,121.74 C285.84,101.1 267.29,81.15 267.29,63.24 C267.29,52.84 275.81,45.34 291.5,45.34 C308.73,45.34 317.08,52.84 328.17,62.56 C337.55,70.75 341.47,72.97 352.39,72.97 C367.91,72.97 377.29,64.78 377.29,53.52 C377.29,31.18 349.29,23.68 320.49,23.68 C275.49,23.68 209.98,57.62 209.98,91.9 C209.98,111.34 226.36,132.48 243.41,155 C259.78,176.66 276.15,200.19 276.15,223.72 C276.15,229.35 269.15,241.46 254.49,241.46 C232.84,241.46 221.75,231.74 213.91,223.21 C202.99,211.28 195.32,201.55 180.48,201.55 C162.23,201.55 151.32,211.79 151.32,224.41 L151.36,224.41 Z" id="Path" fill="#97B5CF"></path>
            <path d="M412,64.27 C412,83.2 429.22,91.21 444.74,91.21 C478.85,91.21 503.92,65.97 503.92,39.03 C503.92,19.59 489.92,9.86 472.03,9.86 C438.43,9.86 412.03,39.54 412.03,64.27 L412,64.27 Z" id="Path" fill="#97B5CF"></path>
            <path d="M535.93,64.27 C535.93,83.2 553.16,91.21 568.67,91.21 C602.78,91.21 627.85,65.97 627.85,39.03 C627.85,19.59 613.85,9.86 595.96,9.86 C562.36,9.86 535.96,39.54 535.96,64.27 L535.93,64.27 Z" id="Path" fill="#97B5CF"></path>
            <path d="M20.89,356.58 C14.89,370.58 11.17,383.69 12.53,390.52 C14.41,400.75 24.13,402.62 42.04,400.75 C91.33,395.8 191.95,334.41 188.88,318.38 C188.270239,315.452459 185.544358,313.460967 182.57,313.77 C178.64,314.11 172.5,318.77 160.23,328.27 C142.49,341.74 119.98,356.75 105.48,358.27 C97.12,359.13 94.22,357.59 93.54,353.16 C92.69,349.06 97.64,341.22 100.36,335.25 L164.83,200.18 C169.26,190.46 173.19,178.52 171.48,168.97 C169.09,156.52 159.88,152.77 138.91,154.97 C94.22,159.74 -2.47,224.04 0.43,239.21 C0.94,241.43 5.03,242.8 8.1,242.45 C12.02,242.11 15.43,239.38 31.29,228.45 C43.06,220.26 63.53,204.23 79.73,202.7 C84.5,202.19 87.91,204.7 88.43,207.13 C88.77,208.84 85.02,218.39 81.26,226.92 L20.89,356.53 L20.89,356.58 Z" id="Path" fill="#97B5CF"></path>
            <path d="M97.12,62.9 C97.12,81.83 114.35,89.85 129.87,89.85 C163.98,89.85 189.05,64.61 189.05,37.66 C189.05,18.22 175.05,8.5 157.16,8.5 C123.73,8.5 97.16,38.34 97.16,62.9 L97.12,62.9 Z" id="Path" fill="#97B5CF"></path>
            <polygon id="Path" fill="#006289" points="556.62 311.95 549.22 311.95 549.22 368.55 556.62 368.55"></polygon>
            <path d="M575.32,331.25 L568.62,331.25 L568.62,368.45 L575.32,368.45 L575.32,341.75 C578.52,337.85 580.82,336.35 583.82,336.35 C587.92,336.35 590.42,339.95 590.42,345.35 L590.42,368.45 L597.12,368.45 L597.12,345.45 C597.12,335.25 592.02,330.45 585.52,330.45 C581.42774,330.605879 577.648162,332.680942 575.32,336.05 L575.12,336.05 L575.32,331.25 L575.32,331.25 Z" id="Path" fill="#006289"></path>
            <path d="M627.92,333.65 C624.921514,331.759203 621.464128,330.721987 617.92,330.65 C611.12,330.65 606.72,334.45 606.72,340.85 C606.72,350.95 622.72,353.55 622.72,358.85 C622.72,361.55 620.42,362.95 617.72,363.15 C614.92,363.15 611.02,361.55 606.62,358.25 L606.62,366.25 C611.02,368.75 614.32,369.65 618.42,369.65 C624.92,369.65 629.62,365.25 629.62,358.75 C629.62,354.95 627.52,352.35 621.92,348.25 C615.92,344.45 613.62,342.45 613.62,340.75 C613.62,338.75 615.32,337.35 618.12,337.35 C620.62,337.35 624.22,338.45 628.02,341.25 L627.92,333.65 L627.92,333.65 Z" id="Path" fill="#006289"></path>
            <path d="M646.72,323.55 L634.12,337.05 L634.12,337.95 L640.02,337.95 L640.02,357.65 C640.02,364.35 643.72,369.35 651.02,369.35 C653.914782,369.189211 656.727891,368.331556 659.22,366.85 L659.22,360.05 C656.42,361.85 654.02,362.85 651.52,362.85 C649.52,362.85 646.72,361.65 646.72,357.25 L646.72,338.15 L657.42,338.15 L657.42,331.45 L646.72,331.45 L646.72,323.55 L646.72,323.55 Z" id="Path" fill="#006289"></path>
            <path d="M672.42,331.25 L665.72,331.25 L665.72,368.45 L672.42,368.45 L672.42,331.25 Z M673.12,320.05 C672.904517,317.906241 671.029773,316.318331 668.879778,316.458527 C666.729782,316.598723 665.077125,318.416647 665.141861,320.570235 C665.206598,322.723824 666.965466,324.439197 669.12,324.45 C671.413611,324.285238 673.173928,322.348889 673.12,320.05 L673.12,320.05 Z" id="Shape" fill="#006289"></path>
            <path d="M691.42,323.55 L678.82,337.05 L678.82,337.95 L684.72,337.95 L684.72,357.65 C684.72,364.35 688.42,369.35 695.72,369.35 C698.614782,369.189211 701.427891,368.331556 703.92,366.85 L703.92,360.05 C701.12,361.85 698.72,362.85 696.22,362.85 C694.22,362.85 691.42,361.65 691.42,357.25 L691.42,338.15 L702.12,338.15 L702.12,331.45 L691.42,331.45 L691.42,323.55 L691.42,323.55 Z" id="Path" fill="#006289"></path>
            <path d="M738.72,368.55 L738.72,331.25 L732,331.25 L732,357.85 C729.8,361.25 727,363.05 723.9,363.05 C719.2,363.05 717,360.15 717,354.85 L717,331.25 L710.3,331.25 L710.3,354.45 C710.3,363.95 715.1,369.25 722.1,369.25 C725.4,369.25 729.4,367.05 732.2,363.75 L732.2,368.55 L738.72,368.55 Z" id="Path" fill="#006289"></path>
            <path d="M757.62,323.55 L745.02,337.05 L745.02,337.95 L750.92,337.95 L750.92,357.65 C750.92,364.35 754.62,369.35 761.92,369.35 C764.814782,369.189211 767.627891,368.331556 770.12,366.85 L770.12,360.05 C767.32,361.85 764.92,362.85 762.42,362.85 C760.42,362.85 757.62,361.65 757.62,357.25 L757.62,338.15 L768.32,338.15 L768.32,331.45 L757.52,331.45 L757.62,323.55 L757.62,323.55 Z" id="Path" fill="#006289"></path>
            <path d="M792.32,330.65 C782.12,330.65 774.32,338.95 774.32,349.65 C774.32,361.05 781.82,369.45 792.32,369.45 C803.22,369.45 810.72,361.45 810.72,349.65 C810.82,338.45 803,330.65 792.32,330.65 Z M792.22,337.15 C798.92,337.15 803.82,342.35 803.82,349.55 C803.82,357.65 799.32,362.55 792.22,362.55 C785.62,362.55 781.22,357.35 781.22,349.45 C781.22,342.35 785.92,337.15 792.22,337.15 L792.22,337.15 Z" id="Shape" fill="#006289"></path>
            <path d="M867.45,311.55 L860.75,311.55 L860.75,331.55 C858.493676,330.624236 856.087967,330.115987 853.65,330.05 C843.65,330.05 836.65,337.75 836.65,348.55 C836.65,360.55 843.05,368.05 853.15,368.05 L867.45,368.05 L867.45,311.55 Z M860.65,361.85 L853.85,361.85 C846.05,361.85 843.45,356.65 843.45,349.65 C843.45,341.85 847.85,336.75 854.35,336.75 C856.529208,336.73086 858.684,337.209703 860.65,338.15 L860.65,361.85 Z" id="Shape" fill="#006289"></path>
            <path d="M907.45,357.35 C903.55,360.25 899.65,361.85 895.55,361.85 C888.95,361.85 885.15,358.05 884.15,350.65 L908.05,350.65 C908.05,336.85 902.25,330.15 893.25,330.15 C883.85,330.15 877.25,337.75 877.25,349.05 C877.25,359.35 883.15,368.95 893.75,368.95 C898.661253,369.139467 903.480442,367.580318 907.35,364.55 L907.45,357.35 L907.45,357.35 Z M884.25,345.75 C885.25,339.85 888.25,336.55 893.45,336.55 C898.25,336.55 901.15,340.15 901.45,345.75 L884.25,345.75 Z" id="Shape" fill="#006289"></path>
            <path d="M966.75,314.75 C963.453557,312.201731 959.416288,310.797464 955.25,310.75 C945.75,310.75 939.55,316.65 939.55,325.85 C939.55,341.35 961.85,342.65 961.85,354.35 C961.85,357.45 959.15,361.45 953.35,361.45 C948.35,361.45 943.45,358.55 939.65,353.25 L939.65,363.65 C943.631192,367.122495 948.768732,368.977718 954.05,368.85 C962.45,368.85 968.45,362.35 968.45,353.45 C968.45,335.45 946.15,335.55 946.15,324.75 C946.15,320.75 949.55,318.05 954.35,318.05 C957.85,318.05 962.05,319.35 966.55,323.95 L966.75,314.75 L966.75,314.75 Z" id="Path" fill="#006289"></path>
            <path d="M1004.75,361.55 C1003.75758,362.483618 1002.55819,363.168981 1001.25,363.55 C1000.35,363.55 999.95,363.05 999.95,361.65 L999.95,342.45 C999.95,333.95 994.55,330.15 987.65,330.15 C982.75,330.15 979.05,331.75 976.35,335.15 L976.35,343.25 C979.55,338.95 983.35,337.05 987.05,337.05 C991.15,337.05 993.25,338.95 993.25,343.65 L993.25,345.65 L987.25,347.95 C981.85,350.15 975.65,352.35 975.65,359.75 C975.65,364.55 978.95,368.85 984.05,368.85 C987.480607,368.762441 990.757562,367.408916 993.25,365.05 C993.85,367.75 995.45,368.85 998.35,368.85 C1000.45,368.85 1001.75,368.15 1004.95,365.95 L1004.75,361.55 L1004.75,361.55 Z M993.15,360.55 C991.68671,362.327726 989.54854,363.414931 987.25,363.55 C984.45,363.55 982.45,361.35 982.45,358.35 C982.45,353.95 987.45,351.75 993.15,349.65 L993.15,360.55 L993.15,360.55 Z" id="Shape" fill="#006289"></path>
            <polygon id="Path" fill="#006289" points="1019.95 311.55 1013.25 311.55 1013.25 368.05 1019.95 368.05"></polygon>
            <path d="M1060.35,368.05 L1060.35,330.85 L1053.65,330.85 L1053.65,357.45 C1051.45,360.85 1048.65,362.65 1045.55,362.65 C1040.85,362.65 1038.65,359.75 1038.65,354.45 L1038.65,330.75 L1032,330.75 L1032,354 C1032,363.5 1036.8,368.8 1043.8,368.8 C1047.1,368.8 1051.1,366.6 1053.9,363.3 L1053.9,368.1 L1060.35,368.05 Z" id="Path" fill="#006289"></path>
            <path d="M1101.65,311.55 L1095,311.55 L1095,331.55 C1092.74368,330.624236 1090.33797,330.115987 1087.9,330.05 C1077.9,330.05 1070.9,337.75 1070.9,348.55 C1070.9,360.55 1077.3,368.05 1087.4,368.05 L1101.7,368.05 L1101.7,311.55 L1101.65,311.55 Z M1094.95,361.85 L1088.15,361.85 C1080.35,361.85 1077.75,356.65 1077.75,349.65 C1077.75,341.85 1082.15,336.75 1088.65,336.75 C1090.82921,336.73086 1092.984,337.209703 1094.95,338.15 L1094.95,361.85 Z" id="Shape" fill="#006289"></path>
            <path d="M1177.69,317.75 C1170.69,314.55 1165.29,313.05 1159.89,313.05 C1143.49,313.05 1131.59,325.65 1131.59,342.85 C1131.59,354.75 1140.09,371.05 1159.49,371.05 C1166.05349,371.152105 1172.51998,369.457678 1178.19,366.15 L1178.19,357.35 C1172.39,361.55 1165.99,363.75 1160.19,363.75 C1147.79,363.75 1139.29,354.95 1139.29,342.25 C1139.29,329.85 1148.09,320.55 1159.89,320.55 C1165.89,320.55 1171.29,322.35 1177.69,326.45 L1177.69,317.75 L1177.69,317.75 Z" id="Path" fill="#006289"></path>
            <path d="M1213.29,363.85 C1211.79,365.05 1210.49,365.85 1209.69,365.85 C1208.89,365.85 1208.39,365.35 1208.39,363.95 L1208.39,344.75 C1208.39,336.25 1202.99,332.45 1196.09,332.45 C1191.19,332.45 1187.49,334.05 1184.79,337.45 L1184.79,345.55 C1187.99,341.25 1191.79,339.35 1195.49,339.35 C1199.59,339.35 1201.69,341.25 1201.69,345.95 L1201.69,347.95 L1195.69,350.25 C1190.29,352.45 1184.09,354.65 1184.09,362.05 C1184.09,366.85 1187.39,371.15 1192.49,371.15 C1195.92061,371.062441 1199.19756,369.708916 1201.69,367.35 C1202.29,370.05 1203.89,371.15 1206.79,371.15 C1208.89,371.15 1210.19,370.45 1213.39,368.25 L1213.29,363.85 L1213.29,363.85 Z M1201.69,362.95 C1200.22671,364.727726 1198.08854,365.814931 1195.79,365.95 C1192.99,365.95 1190.99,363.75 1190.99,360.75 C1190.99,356.35 1195.99,354.15 1201.69,352.05 L1201.69,363 L1201.69,362.95 Z" id="Shape" fill="#006289"></path>
            <path d="M1220.29,333.25 L1220.29,370.45 L1226.99,370.45 L1226.99,351 C1226.99,344.6 1230.59,339.6 1235.29,339.6 C1236.89,339.6 1239.59,341.1 1241.59,343.2 L1245.19,336.8 C1242.29,333.9 1239.79,332.5 1237.09,332.5 C1233.89,332.5 1230.59,335.3 1227.19,341.8 L1226.99,341.8 L1226.99,333.2 L1220.29,333.3 L1220.29,333.25 Z" id="Path" fill="#006289"></path>
            <polygon id="Path" fill="#006289" points="1257.39 313.85 1250.59 313.85 1250.59 370.55 1257.39 370.55"></polygon>
            <path d="M1283.59,332.55 C1273.39,332.55 1265.59,340.85 1265.59,351.55 C1265.59,362.95 1273.09,371.35 1283.59,371.35 C1294.49,371.35 1301.99,363.35 1301.99,351.55 C1301.89,340.45 1294.19,332.55 1283.59,332.55 Z M1283.49,339.15 C1290.19,339.15 1295.09,344.35 1295.09,351.55 C1295.09,359.65 1290.59,364.55 1283.49,364.55 C1276.89,364.55 1272.49,359.35 1272.49,351.45 C1272.49,344.35 1277.09,339.15 1283.49,339.15 L1283.49,339.15 Z" id="Shape" fill="#006289"></path>
            <path d="M1329.89,335.55 C1326.89864,333.643602 1323.43677,332.605042 1319.89,332.55 C1313.09,332.55 1308.69,336.35 1308.69,342.75 C1308.69,352.85 1324.69,355.45 1324.69,360.75 C1324.69,363.45 1322.39,364.85 1319.69,365.05 C1316.89,365.05 1312.99,363.45 1308.59,360.25 L1308.59,368.25 C1312.99,370.75 1316.29,371.65 1320.39,371.65 C1326.89,371.65 1331.59,367.25 1331.59,360.75 C1331.59,356.95 1329.49,354.35 1323.89,350.25 C1317.89,346.45 1315.59,344.45 1315.59,342.75 C1315.59,340.75 1317.29,339.35 1320.09,339.35 C1322.59,339.35 1326.19,340.45 1329.99,343.25 L1329.89,335.55 L1329.89,335.55 Z" id="Path" fill="#006289"></path>
            <polygon id="Path" fill="#006289" points="1357.29 313.85 1349.89 313.85 1349.89 370.55 1357.29 370.55"></polygon>
            <polygon id="Path" fill="#006289" points="1376.89 313.85 1369.49 313.85 1369.49 370.55 1376.89 370.55"></polygon>
            <polygon id="Path" fill="#006289" points="1396.39 313.85 1388.89 313.85 1388.89 370.55 1396.39 370.55"></polygon>
        </g>
    </g>
</svg>